#N canvas 384 116 912 894 16;
#X msg 420 508 connect localhost 7777;
#X obj 392 300 hsl 256 30 0.1 5 0 0 empty empty empty -2 -8 0 10 -262144
-1 -1 6700 1;
#X floatatom 390 364 5 0 0 0 - - -;
#X obj 420 476 loadbang;
#X obj 32 191 cube_sphere 2 150 40 262130 195567 250684 153 159 62783
178 137;
#X obj 31 19 OSCrx 8888;
#X obj 384 781 OSCtx;
#N canvas 576 226 1194 1095 sphere2rect 0;
#X obj 74 37 inlet r ϕ θ;
#X text 274 33 x=rsinϕcosθ y=rsinϕsinθ z=rcosϕ;
#X obj 74 141 unpack 0 0 0;
#X obj 53 331 expr $f1*sin($f2)*cos($f3);
#X obj 53 374 outlet x;
#X obj 249 330 expr $f1*sin($f2)*sin($f3);
#X obj 322 363 expr $f1*cos($f2);
#X obj 247 399 outlet y;
#X obj 323 402 outlet z;
#X obj 70 238 t f f f;
#X obj 257 239 deg2rad;
#X obj 156 235 deg2rad;
#X obj 145 193 expr 90 - $f1;
#X obj 264 211 + 90;
#X connect 0 0 2 0;
#X connect 2 0 9 0;
#X connect 2 1 12 0;
#X connect 2 2 13 0;
#X connect 3 0 4 0;
#X connect 5 0 7 0;
#X connect 6 0 8 0;
#X connect 9 0 3 0;
#X connect 9 1 5 0;
#X connect 9 2 6 0;
#X connect 10 0 3 2;
#X connect 10 0 5 2;
#X connect 11 0 3 1;
#X connect 11 0 6 1;
#X connect 11 0 5 1;
#X connect 12 0 11 0;
#X connect 13 0 10 0;
#X restore 33 567 pd sphere2rect;
#X msg 33 533 10 \$1 \$2;
#X floatatom 32 609 5 0 0 0 - - -;
#X floatatom 92 614 5 0 0 0 - - -;
#X floatatom 152 613 5 0 0 0 - - -;
#X obj 48 82 unpack 0 0 0;
#X floatatom 48 116 5 0 0 0 - - -;
#X floatatom 107 117 5 0 0 0 - - -;
#X floatatom 166 118 5 0 0 0 - - -;
#X obj 35 643 pack 0 1 0;
#N canvas 883 23 1069 938 rect2sphere 0;
#X obj 85 80 unpack 0 0 0;
#X obj 80 212 t f f;
#X obj 82 185 clip -10 10;
#X obj 332 184 clip -10 10;
#X obj 84 15 inlet position x y z;
#X text 305 75 r = √ (x*x + y*y + z*z) \, θ = atan( y/ x) ϕ = atan(
sqrt(x*x + y*y) / z);
#X obj 208 184 clip -10 10;
#X obj 44 294 expr $f1*$f1+$f2*$f2+$f3*$f3;
#X obj 47 341 sqrt;
#X obj 103 611 pack 0 0 0;
#X floatatom 207 147 5 0 0 0 - - -;
#X floatatom 327 150 5 0 0 0 - - -;
#X floatatom 90 122 5 0 0 0 - - -;
#X obj 417 435 rad2deg;
#X obj 346 379 rad2deg;
#X obj 248 432 expr 90 - $f1;
#X floatatom 248 467 5 0 0 0 - - -;
#X floatatom 419 504 5 0 0 0 - - -;
#X obj 352 270 expr sqrt($f1*$f1+$f2*$f2);
#X obj 348 346 atan2;
#X floatatom 477 345 5 0 0 0 - - -;
#X obj 446 391 atan2;
#X obj 354 305 swap;
#X obj 418 468 * -1;
#X msg 84 51 \$1 \$3 \$2;
#X text 184 47 make z height \, make y depth;
#X text 312 10 anticipating unity format X Y Z;
#X obj 517 435 expr sqrt($f1*$f1+$f2*$f2);
#X floatatom 517 467 5 0 0 0 - - -;
#X obj 517 501 zscale 0 10 90 0;
#X text 525 524 use distance to center as elevation;
#X msg 101 658 src_dp 1 \$2 \$3;
#X obj 101 703 outlet;
#X text 213 607 radius elevation theta;
#X obj 299 697 loadbang;
#X text 299 667 configure graphic display;
#X msg 300 729 src_font 40 \, size 300 \, nr_src 2 \, sphere_col 5
;
#X connect 0 0 12 0;
#X connect 0 1 10 0;
#X connect 0 2 11 0;
#X connect 1 0 7 0;
#X connect 1 1 18 0;
#X connect 1 1 21 0;
#X connect 1 1 27 0;
#X connect 2 0 1 0;
#X connect 3 0 22 1;
#X connect 3 0 7 2;
#X connect 4 0 24 0;
#X connect 6 0 7 1;
#X connect 6 0 18 1;
#X connect 6 0 20 0;
#X connect 6 0 27 1;
#X connect 7 0 8 0;
#X connect 8 0 9 0;
#X connect 9 0 31 0;
#X connect 10 0 6 0;
#X connect 11 0 3 0;
#X connect 12 0 2 0;
#X connect 13 0 23 0;
#X connect 14 0 15 0;
#X connect 15 0 16 0;
#X connect 17 0 9 2;
#X connect 18 0 22 0;
#X connect 19 0 14 0;
#X connect 20 0 21 1;
#X connect 21 0 13 0;
#X connect 22 0 19 0;
#X connect 22 1 19 1;
#X connect 23 0 17 0;
#X connect 24 0 0 0;
#X connect 27 0 28 0;
#X connect 28 0 29 0;
#X connect 29 0 9 1;
#X connect 31 0 32 0;
#X connect 34 0 36 0;
#X connect 36 0 32 0;
#X restore 32 153 pd rect2sphere;
#X text 227 114 position X Y Z;
#X obj 32 502 route 2;
#X msg 390 416 /Sphere1/scale \$1 \$1 \$1;
#X msg 34 673 /Sphere1/position \$1 \$3 \$2;
#X text 293 11 "1" is moved when Cube2 is moved in Unity;
#X text 287 44 "2" moves Sphere1 in Unity;
#X obj 31 48 OSCparse /Cube2/position;
#X connect 0 0 6 0;
#X connect 1 0 2 0;
#X connect 2 0 20 0;
#X connect 3 0 0 0;
#X connect 4 0 19 0;
#X connect 5 0 24 0;
#X connect 7 0 9 0;
#X connect 7 1 10 0;
#X connect 7 2 11 0;
#X connect 8 0 7 0;
#X connect 9 0 16 0;
#X connect 10 0 16 1;
#X connect 11 0 16 2;
#X connect 12 0 13 0;
#X connect 12 1 14 0;
#X connect 12 2 15 0;
#X connect 16 0 21 0;
#X connect 17 0 4 0;
#X connect 19 0 8 0;
#X connect 20 0 6 0;
#X connect 21 0 6 0;
#X connect 24 0 12 0;
#X connect 24 0 17 0;
