#N canvas 1369 41 985 996 16;
#X msg 634 612 connect localhost 7777;
#X obj 606 404 hsl 256 30 0.1 5 0 0 empty empty empty -2 -8 0 10 -262144
-1 -1 3700 1;
#X floatatom 604 468 5 0 0 0 - - -;
#X obj 634 580 loadbang;
#X obj 34 251 cube_sphere 2 150 40 262130 195567 250684 70 127 62783
155 117;
#X obj 35 -5 OSCrx 8888;
#X obj 607 906 OSCtx;
#X obj 34 60 unpack 0 0 0;
#X floatatom 34 94 5 0 0 0 - - -;
#X floatatom 93 96 5 0 0 0 - - -;
#X text 153 90 position X Y Z;
#X msg 604 520 /Sphere1/scale \$1 \$1 \$1;
#X obj 35 719 pack;
#X floatatom 34 680 5 0 640 0 X - -;
#X floatatom 171 680 5 0 360 0 Y - -;
#N canvas 1130 474 787 818 sphere2rect 0;
#X obj 136 161 unpack;
#X obj 136 231 zscale 0 90 1 0;
#X obj 201 490 outlet Y;
#X obj 138 486 outlet X;
#X obj 136 378 polar2rect;
#X obj 135 266 swap;
#X obj 134 334 pack;
#X obj 140 71 inlet elev azi;
#X obj 134 293 - 90;
#X obj 150 423 * -1;
#X obj 203 426 * -1;
#X connect 0 0 1 0;
#X connect 0 1 5 1;
#X connect 1 0 5 0;
#X connect 4 0 9 0;
#X connect 4 1 10 0;
#X connect 5 0 8 0;
#X connect 5 1 6 1;
#X connect 6 0 4 0;
#X connect 7 0 0 0;
#X connect 8 0 6 0;
#X connect 9 0 3 0;
#X connect 10 0 2 0;
#X restore 33 612 pd sphere2rect;
#X msg 36 771 /Sphere1/position \$1 1 \$2;
#N canvas 978 404 984 655 rect2sphere 0;
#X obj 66 18 inlet X Y;
#X obj 64 167 clip -1 1;
#X obj 168 168 clip -1 1;
#X obj 132 280 clip 0 1;
#X obj 131 313 expr 90 - ($f1 * 90);
#X obj 65 251 rect2polar;
#X obj 64 205 pack;
#X obj 63 302 - 90;
#X obj 66 51 swap;
#X obj 63 351 pack;
#X obj 63 397 outlet;
#X obj 64 95 / 5;
#X obj 133 90 / 5;
#X obj 399 21 inlet X Y;
#X obj 397 170 clip -1 1;
#X obj 501 171 clip -1 1;
#X obj 465 283 clip 0 1;
#X obj 464 316 expr 90 - ($f1 * 90);
#X obj 398 254 rect2polar;
#X obj 397 208 pack;
#X obj 396 305 - 90;
#X obj 399 54 swap;
#X obj 396 354 pack;
#X obj 396 400 outlet;
#X obj 397 98 / 5;
#X obj 466 93 / 5;
#X connect 0 0 8 0;
#X connect 1 0 6 0;
#X connect 2 0 6 1;
#X connect 3 0 4 0;
#X connect 4 0 9 1;
#X connect 5 0 7 0;
#X connect 5 1 3 0;
#X connect 6 0 5 0;
#X connect 7 0 9 0;
#X connect 8 0 11 0;
#X connect 8 1 12 0;
#X connect 9 0 10 0;
#X connect 11 0 1 0;
#X connect 12 0 2 0;
#X connect 13 0 21 0;
#X connect 14 0 19 0;
#X connect 15 0 19 1;
#X connect 16 0 17 0;
#X connect 17 0 22 1;
#X connect 18 0 20 0;
#X connect 18 1 16 0;
#X connect 19 0 18 0;
#X connect 20 0 22 0;
#X connect 21 0 24 0;
#X connect 21 1 25 0;
#X connect 22 0 23 0;
#X connect 24 0 14 0;
#X connect 25 0 15 0;
#X restore 35 161 pd rect2sphere;
#X obj 35 131 pack;
#X obj 33 645 * 5;
#X obj 169 647 * 5;
#X obj 343 64 unpack 0 0 0;
#X floatatom 343 98 5 0 0 0 - - -;
#X floatatom 402 100 5 0 0 0 - - -;
#X text 462 94 position X Y Z;
#N canvas 978 404 984 655 rect2sphere 0;
#X obj 66 18 inlet X Y;
#X obj 64 167 clip -1 1;
#X obj 168 168 clip -1 1;
#X obj 132 280 clip 0 1;
#X obj 131 313 expr 90 - ($f1 * 90);
#X obj 65 251 rect2polar;
#X obj 64 205 pack;
#X obj 63 302 - 90;
#X obj 66 51 swap;
#X obj 63 351 pack;
#X obj 63 397 outlet;
#X obj 64 95 / 5;
#X obj 133 90 / 5;
#X obj 399 21 inlet X Y;
#X obj 397 170 clip -1 1;
#X obj 501 171 clip -1 1;
#X obj 465 283 clip 0 1;
#X obj 464 316 expr 90 - ($f1 * 90);
#X obj 398 254 rect2polar;
#X obj 397 208 pack;
#X obj 396 305 - 90;
#X obj 399 54 swap;
#X obj 396 354 pack;
#X obj 396 400 outlet;
#X obj 397 98 / 5;
#X obj 466 93 / 5;
#X connect 0 0 8 0;
#X connect 1 0 6 0;
#X connect 2 0 6 1;
#X connect 3 0 4 0;
#X connect 4 0 9 1;
#X connect 5 0 7 0;
#X connect 5 1 3 0;
#X connect 6 0 5 0;
#X connect 7 0 9 0;
#X connect 8 0 11 0;
#X connect 8 1 12 0;
#X connect 9 0 10 0;
#X connect 11 0 1 0;
#X connect 12 0 2 0;
#X connect 13 0 21 0;
#X connect 14 0 19 0;
#X connect 15 0 19 1;
#X connect 16 0 17 0;
#X connect 17 0 22 1;
#X connect 18 0 20 0;
#X connect 18 1 16 0;
#X connect 19 0 18 0;
#X connect 20 0 22 0;
#X connect 21 0 24 0;
#X connect 21 1 25 0;
#X connect 22 0 23 0;
#X connect 24 0 14 0;
#X connect 25 0 15 0;
#X restore 344 165 pd rect2sphere;
#X obj 344 135 pack;
#X obj 323 25 OSCparse /Cube2/position;
#X obj 35 24 OSCparse /Sphere1/position;
#X msg 34 202 src_dp 1 \$2 \$1;
#X msg 343 206 src_dp 2 \$2 \$1;
#X obj 315 719 pack;
#X floatatom 314 680 5 0 640 0 X - -;
#X floatatom 451 680 5 0 360 0 Y - -;
#N canvas 1130 474 787 818 sphere2rect 0;
#X obj 136 161 unpack;
#X obj 136 231 zscale 0 90 1 0;
#X obj 201 490 outlet Y;
#X obj 138 486 outlet X;
#X obj 136 378 polar2rect;
#X obj 135 266 swap;
#X obj 134 334 pack;
#X obj 140 71 inlet elev azi;
#X obj 134 293 - 90;
#X obj 150 423 * -1;
#X obj 203 426 * -1;
#X connect 0 0 1 0;
#X connect 0 1 5 1;
#X connect 1 0 5 0;
#X connect 4 0 9 0;
#X connect 4 1 10 0;
#X connect 5 0 8 0;
#X connect 5 1 6 1;
#X connect 6 0 4 0;
#X connect 7 0 0 0;
#X connect 8 0 6 0;
#X connect 9 0 3 0;
#X connect 10 0 2 0;
#X restore 313 612 pd sphere2rect;
#X obj 313 645 * 5;
#X obj 449 647 * 5;
#X obj 33 575 route 1 2;
#X msg 316 771 /Cube2/position \$1 1 \$2;
#X text 368 267 bi-directional communication with UNITY;
#X connect 0 0 6 0;
#X connect 1 0 2 0;
#X connect 2 0 11 0;
#X connect 3 0 0 0;
#X connect 4 0 37 0;
#X connect 5 0 28 0;
#X connect 7 0 8 0;
#X connect 7 2 9 0;
#X connect 8 0 18 0;
#X connect 9 0 18 1;
#X connect 11 0 6 0;
#X connect 12 0 16 0;
#X connect 13 0 12 0;
#X connect 14 0 12 1;
#X connect 15 0 19 0;
#X connect 15 1 20 0;
#X connect 16 0 6 0;
#X connect 17 0 29 0;
#X connect 18 0 17 0;
#X connect 19 0 13 0;
#X connect 20 0 14 0;
#X connect 21 0 22 0;
#X connect 21 2 23 0;
#X connect 22 0 26 0;
#X connect 23 0 26 1;
#X connect 25 0 30 0;
#X connect 26 0 25 0;
#X connect 27 0 21 0;
#X connect 28 0 7 0;
#X connect 28 1 27 0;
#X connect 29 0 4 0;
#X connect 30 0 4 0;
#X connect 31 0 38 0;
#X connect 32 0 31 0;
#X connect 33 0 31 1;
#X connect 34 0 35 0;
#X connect 34 1 36 0;
#X connect 35 0 32 0;
#X connect 36 0 33 0;
#X connect 37 0 15 0;
#X connect 37 1 34 0;
#X connect 38 0 6 0;
