#N canvas 351 156 844 963 16;
#X msg 42 221 connect localhost 7777;
#X obj 34 7 hsl 128 15 0.1 5 0 0 empty empty empty -2 -8 0 10 -262144
-1 -1 12100 1;
#X floatatom 32 33 5 0 0 0 - - -;
#X obj 51 194 loadbang;
#X obj 311 233 cube_sphere 0 201 40 24197 195567 250684 177 50;
#X obj 344 68 OSCrx 8888;
#X obj 313 6 loadbang;
#X obj 29 269 OSCtx;
#X obj 344 97 OSCparse /position;
#X obj 311 646 route 1;
#N canvas 576 226 1194 1095 sphere2rect 0;
#X obj 74 37 inlet r ϕ θ;
#X text 274 33 x=rsinϕcosθ y=rsinϕsinθ z=rcosϕ;
#X obj 74 141 unpack 0 0 0;
#X obj 53 331 expr $f1*sin($f2)*cos($f3);
#X obj 53 374 outlet x;
#X obj 249 330 expr $f1*sin($f2)*sin($f3);
#X obj 322 363 expr $f1*cos($f2);
#X obj 247 399 outlet y;
#X obj 323 402 outlet z;
#X obj 70 238 t f f f;
#X obj 257 239 deg2rad;
#X obj 156 235 deg2rad;
#X obj 145 193 expr 90 - $f1;
#X obj 264 211 + 90;
#X connect 0 0 2 0;
#X connect 2 0 9 0;
#X connect 2 1 12 0;
#X connect 2 2 13 0;
#X connect 3 0 4 0;
#X connect 5 0 7 0;
#X connect 6 0 8 0;
#X connect 9 0 3 0;
#X connect 9 1 5 0;
#X connect 9 2 6 0;
#X connect 10 0 3 2;
#X connect 10 0 5 2;
#X connect 11 0 3 1;
#X connect 11 0 6 1;
#X connect 11 0 5 1;
#X connect 12 0 11 0;
#X connect 13 0 10 0;
#X restore 312 711 pd sphere2rect;
#X msg 312 677 10 \$1 \$2;
#X floatatom 311 753 5 0 0 0 - - -;
#X floatatom 371 758 5 0 0 0 - - -;
#X floatatom 431 757 5 0 0 0 - - -;
#X obj 517 130 unpack 0 0 0;
#X floatatom 517 164 5 0 0 0 - - -;
#X floatatom 576 165 5 0 0 0 - - -;
#X floatatom 635 166 5 0 0 0 - - -;
#X obj 314 787 pack 0 1 0;
#X msg 313 817 /Sphere/position \$1 \$3 \$2;
#X msg 341 195 src_dp 1 \$2 \$3;
#N canvas 521 28 1533 1370 rect2sphere 0;
#X obj 85 80 unpack 0 0 0;
#X obj 80 202 t f f;
#X obj 82 175 clip -10 10;
#X obj 269 174 clip -10 10;
#X obj 84 15 inlet position x y z;
#X text 51 601 r = √ (x*x + y*y + z*z) \, θ = atan( y/ x) ϕ = atan(
sqrt(x*x + y*y) / z);
#X obj 174 173 clip -10 10;
#X obj 47 295 expr $f1*$f1+$f2*$f2+$f3*$f3;
#X obj 47 321 sqrt;
#X obj 103 539 pack 0 0 0;
#X obj 103 560 outlet radius elevation theta;
#X floatatom 173 146 5 0 0 0 - - -;
#X floatatom 264 150 5 0 0 0 - - -;
#X floatatom 90 122 5 0 0 0 - - -;
#X obj 347 393 rad2deg;
#X obj 247 356 rad2deg;
#X obj 248 382 expr 90 - $f1;
#X floatatom 248 407 5 0 0 0 - - -;
#X floatatom 349 440 5 0 0 0 - - -;
#X obj 253 267 expr sqrt($f1*$f1+$f2*$f2);
#X obj 249 333 atan2;
#X floatatom 378 332 5 0 0 0 - - -;
#X obj 347 368 atan2;
#X obj 255 302 swap;
#X obj 348 416 * -1;
#X msg 84 51 \$1 \$3 \$2;
#X text 158 49 make z height \, make y depth;
#X text 235 11 anticipating unity format X Y Z;
#X obj 447 393 expr sqrt($f1*$f1+$f2*$f2);
#X floatatom 447 415 5 0 0 0 - - -;
#X obj 447 437 zscale 0 10 90 0;
#X text 204 532 use distance to center as elevation;
#X connect 0 0 13 0;
#X connect 0 1 11 0;
#X connect 0 2 12 0;
#X connect 1 0 7 0;
#X connect 1 1 19 0;
#X connect 1 1 22 0;
#X connect 1 1 28 0;
#X connect 2 0 1 0;
#X connect 3 0 23 1;
#X connect 3 0 7 2;
#X connect 4 0 25 0;
#X connect 6 0 7 1;
#X connect 6 0 19 1;
#X connect 6 0 21 0;
#X connect 6 0 28 1;
#X connect 7 0 8 0;
#X connect 8 0 9 0;
#X connect 9 0 10 0;
#X connect 11 0 6 0;
#X connect 12 0 3 0;
#X connect 13 0 2 0;
#X connect 14 0 24 0;
#X connect 15 0 16 0;
#X connect 16 0 17 0;
#X connect 18 0 9 2;
#X connect 19 0 23 0;
#X connect 20 0 15 0;
#X connect 21 0 22 1;
#X connect 22 0 14 0;
#X connect 23 0 20 0;
#X connect 23 1 20 1;
#X connect 24 0 18 0;
#X connect 25 0 0 0;
#X connect 28 0 29 0;
#X connect 29 0 30 0;
#X connect 30 0 9 1;
#X restore 343 144 pd rect2sphere;
#X msg 314 38 src_font 40 \, size 400;
#X text 514 198 position X Y Z;
#X msg 32 85 /Sphere/scale \$1 \$1 \$1;
#X connect 0 0 7 0;
#X connect 1 0 2 0;
#X connect 2 0 25 0;
#X connect 3 0 0 0;
#X connect 4 0 9 0;
#X connect 5 0 8 0;
#X connect 6 0 23 0;
#X connect 8 0 15 0;
#X connect 8 0 22 0;
#X connect 9 0 11 0;
#X connect 10 0 12 0;
#X connect 10 1 13 0;
#X connect 10 2 14 0;
#X connect 11 0 10 0;
#X connect 12 0 19 0;
#X connect 13 0 19 1;
#X connect 14 0 19 2;
#X connect 15 0 16 0;
#X connect 15 1 17 0;
#X connect 15 2 18 0;
#X connect 19 0 20 0;
#X connect 20 0 7 0;
#X connect 21 0 4 0;
#X connect 22 0 21 0;
#X connect 23 0 4 0;
#X connect 25 0 7 0;
